<mxfile host="app.diagrams.net" agent="Mozilla/5.0 (Windows NT 10.0; Win64; x64) AppleWebKit/537.36 (KHTML, like Gecko) Chrome/132.0.0.0 Safari/537.36 OPR/117.0.0.0 (Edition MSI)" version="26.2.10">
  <diagram name="Страница — 1" id="eGaFwrD_WAsBf7NDzoaS">
    <mxGraphModel dx="2312" dy="1275" grid="1" gridSize="10" guides="1" tooltips="1" connect="1" arrows="1" fold="1" page="1" pageScale="1" pageWidth="827" pageHeight="1169" math="0" shadow="0">
      <root>
        <mxCell id="0" />
        <mxCell id="1" parent="0" />
        <mxCell id="apUSs1hnYb1Tr-yOFyx6-8" style="edgeStyle=orthogonalEdgeStyle;rounded=0;orthogonalLoop=1;jettySize=auto;html=1;endArrow=none;startFill=0;" parent="1" source="tjVxPv9A50ptuYDxmKrU-3" edge="1">
          <mxGeometry relative="1" as="geometry">
            <mxPoint x="510" y="200" as="targetPoint" />
          </mxGeometry>
        </mxCell>
        <mxCell id="tjVxPv9A50ptuYDxmKrU-3" value="&lt;font style=&quot;font-size: 18px;&quot;&gt;Начало&lt;/font&gt;" style="rounded=1;whiteSpace=wrap;html=1;absoluteArcSize=1;arcSize=72;strokeWidth=2;" parent="1" vertex="1">
          <mxGeometry x="410" y="120" width="200" height="40" as="geometry" />
        </mxCell>
        <mxCell id="M7IVvJv1SrqimSqKYLZS-16" style="edgeStyle=orthogonalEdgeStyle;rounded=0;orthogonalLoop=1;jettySize=auto;html=1;entryX=0.5;entryY=0;entryDx=0;entryDy=0;endArrow=none;startFill=0;" edge="1" parent="1" source="tjVxPv9A50ptuYDxmKrU-6" target="tjVxPv9A50ptuYDxmKrU-8">
          <mxGeometry relative="1" as="geometry" />
        </mxCell>
        <mxCell id="tjVxPv9A50ptuYDxmKrU-6" value="&lt;font style=&quot;font-size: 18px;&quot;&gt;Вычисление текущего положения суставов&lt;/font&gt;" style="rounded=0;whiteSpace=wrap;html=1;absoluteArcSize=1;arcSize=14;strokeWidth=2;" parent="1" vertex="1">
          <mxGeometry x="1204" y="140" width="200" height="80" as="geometry" />
        </mxCell>
        <mxCell id="jqTuUdEYVNPLaytHjCHI-3" value="" style="edgeStyle=orthogonalEdgeStyle;rounded=0;orthogonalLoop=1;jettySize=auto;html=1;endArrow=none;startFill=0;" parent="1" source="tjVxPv9A50ptuYDxmKrU-8" target="jqTuUdEYVNPLaytHjCHI-2" edge="1">
          <mxGeometry relative="1" as="geometry" />
        </mxCell>
        <mxCell id="tjVxPv9A50ptuYDxmKrU-8" value="&lt;span style=&quot;font-size: 18px;&quot;&gt;Смещение манипулятора&lt;/span&gt;" style="shape=parallelogram;html=1;strokeWidth=2;perimeter=parallelogramPerimeter;whiteSpace=wrap;rounded=0;arcSize=12;size=0.23;" parent="1" vertex="1">
          <mxGeometry x="1204" y="260" width="200" height="80" as="geometry" />
        </mxCell>
        <mxCell id="tjVxPv9A50ptuYDxmKrU-27" style="edgeStyle=orthogonalEdgeStyle;rounded=0;orthogonalLoop=1;jettySize=auto;html=1;exitX=0;exitY=0.5;exitDx=0;exitDy=0;exitPerimeter=0;" parent="1" source="tjVxPv9A50ptuYDxmKrU-26" edge="1">
          <mxGeometry relative="1" as="geometry">
            <mxPoint x="1304" y="240" as="targetPoint" />
            <Array as="points">
              <mxPoint x="1124" y="730" />
              <mxPoint x="1124" y="240" />
            </Array>
          </mxGeometry>
        </mxCell>
        <mxCell id="tjVxPv9A50ptuYDxmKrU-30" value="&lt;font style=&quot;font-size: 18px;&quot;&gt;нет&lt;/font&gt;" style="edgeLabel;html=1;align=center;verticalAlign=middle;resizable=0;points=[];" parent="tjVxPv9A50ptuYDxmKrU-27" vertex="1" connectable="0">
          <mxGeometry x="-0.8452" y="2" relative="1" as="geometry">
            <mxPoint x="32" y="-22" as="offset" />
          </mxGeometry>
        </mxCell>
        <mxCell id="tjVxPv9A50ptuYDxmKrU-32" value="" style="edgeStyle=orthogonalEdgeStyle;rounded=0;orthogonalLoop=1;jettySize=auto;html=1;endArrow=none;endFill=0;" parent="1" source="tjVxPv9A50ptuYDxmKrU-26" target="tjVxPv9A50ptuYDxmKrU-31" edge="1">
          <mxGeometry relative="1" as="geometry" />
        </mxCell>
        <mxCell id="tjVxPv9A50ptuYDxmKrU-33" value="&lt;font style=&quot;font-size: 18px;&quot;&gt;да&lt;/font&gt;" style="edgeLabel;html=1;align=center;verticalAlign=middle;resizable=0;points=[];" parent="tjVxPv9A50ptuYDxmKrU-32" vertex="1" connectable="0">
          <mxGeometry x="-0.0971" y="1" relative="1" as="geometry">
            <mxPoint x="19" y="-13" as="offset" />
          </mxGeometry>
        </mxCell>
        <mxCell id="tjVxPv9A50ptuYDxmKrU-26" value="&lt;div&gt;&lt;span style=&quot;font-size: 18px;&quot;&gt;Завершить&amp;nbsp;&lt;/span&gt;&lt;/div&gt;&lt;div&gt;&lt;span style=&quot;font-size: 18px;&quot;&gt;программу?&lt;/span&gt;&lt;/div&gt;" style="strokeWidth=2;html=1;shape=mxgraph.flowchart.decision;whiteSpace=wrap;" parent="1" vertex="1">
          <mxGeometry x="1204" y="660" width="200" height="140" as="geometry" />
        </mxCell>
        <mxCell id="tjVxPv9A50ptuYDxmKrU-31" value="&lt;span style=&quot;font-size: 18px;&quot;&gt;Конец&lt;/span&gt;" style="rounded=1;whiteSpace=wrap;html=1;absoluteArcSize=1;arcSize=72;strokeWidth=2;" parent="1" vertex="1">
          <mxGeometry x="1204" y="850" width="200" height="40" as="geometry" />
        </mxCell>
        <mxCell id="jqTuUdEYVNPLaytHjCHI-5" value="" style="edgeStyle=orthogonalEdgeStyle;rounded=0;orthogonalLoop=1;jettySize=auto;html=1;endArrow=none;startFill=0;" parent="1" source="jqTuUdEYVNPLaytHjCHI-2" target="jqTuUdEYVNPLaytHjCHI-4" edge="1">
          <mxGeometry relative="1" as="geometry" />
        </mxCell>
        <mxCell id="jqTuUdEYVNPLaytHjCHI-2" value="&lt;font style=&quot;font-size: 18px;&quot;&gt;Подпрограмма смещения сустава&lt;/font&gt;" style="shape=process;whiteSpace=wrap;html=1;backgroundOutline=1;strokeWidth=2;" parent="1" vertex="1">
          <mxGeometry x="1204" y="370" width="200" height="80" as="geometry" />
        </mxCell>
        <mxCell id="jqTuUdEYVNPLaytHjCHI-6" style="edgeStyle=orthogonalEdgeStyle;rounded=0;orthogonalLoop=1;jettySize=auto;html=1;" parent="1" source="jqTuUdEYVNPLaytHjCHI-4" edge="1">
          <mxGeometry relative="1" as="geometry">
            <mxPoint x="1304" y="360" as="targetPoint" />
            <Array as="points">
              <mxPoint x="1564" y="560" />
              <mxPoint x="1564" y="360" />
            </Array>
          </mxGeometry>
        </mxCell>
        <mxCell id="jqTuUdEYVNPLaytHjCHI-8" value="" style="edgeStyle=orthogonalEdgeStyle;rounded=0;orthogonalLoop=1;jettySize=auto;html=1;endArrow=none;startFill=0;" parent="1" source="jqTuUdEYVNPLaytHjCHI-4" target="tjVxPv9A50ptuYDxmKrU-26" edge="1">
          <mxGeometry relative="1" as="geometry" />
        </mxCell>
        <mxCell id="jqTuUdEYVNPLaytHjCHI-4" value="&lt;div&gt;&lt;span style=&quot;font-size: 18px;&quot;&gt;Необходимо&amp;nbsp;&lt;/span&gt;&lt;/div&gt;&lt;div&gt;&lt;span style=&quot;font-size: 18px;&quot;&gt;смещение смежной&amp;nbsp;&lt;/span&gt;&lt;/div&gt;&lt;div&gt;&lt;span style=&quot;font-size: 18px;&quot;&gt;группы&lt;/span&gt;&lt;/div&gt;" style="strokeWidth=2;html=1;shape=mxgraph.flowchart.decision;whiteSpace=wrap;" parent="1" vertex="1">
          <mxGeometry x="1204" y="490" width="200" height="140" as="geometry" />
        </mxCell>
        <mxCell id="jqTuUdEYVNPLaytHjCHI-7" value="&lt;font style=&quot;font-size: 18px;&quot;&gt;да&lt;/font&gt;" style="text;html=1;align=center;verticalAlign=middle;resizable=0;points=[];autosize=1;strokeColor=none;fillColor=none;" parent="1" vertex="1">
          <mxGeometry x="1404" y="525" width="40" height="40" as="geometry" />
        </mxCell>
        <mxCell id="apUSs1hnYb1Tr-yOFyx6-1" value="&lt;font style=&quot;font-size: 18px;&quot;&gt;Сохранение координат суставов смежной группы&lt;/font&gt;" style="rounded=0;whiteSpace=wrap;html=1;absoluteArcSize=1;arcSize=14;strokeWidth=2;" parent="1" vertex="1">
          <mxGeometry x="1454" y="430" width="200" height="80" as="geometry" />
        </mxCell>
        <mxCell id="apUSs1hnYb1Tr-yOFyx6-2" value="" style="endArrow=none;html=1;rounded=0;strokeWidth=2;" parent="1" edge="1">
          <mxGeometry width="50" height="50" relative="1" as="geometry">
            <mxPoint x="40" y="200" as="sourcePoint" />
            <mxPoint x="980" y="200" as="targetPoint" />
          </mxGeometry>
        </mxCell>
        <mxCell id="apUSs1hnYb1Tr-yOFyx6-3" value="" style="endArrow=none;html=1;rounded=0;strokeWidth=2;" parent="1" edge="1">
          <mxGeometry width="50" height="50" relative="1" as="geometry">
            <mxPoint x="40" y="220" as="sourcePoint" />
            <mxPoint x="980" y="220" as="targetPoint" />
          </mxGeometry>
        </mxCell>
        <mxCell id="apUSs1hnYb1Tr-yOFyx6-9" style="edgeStyle=orthogonalEdgeStyle;rounded=0;orthogonalLoop=1;jettySize=auto;html=1;endArrow=none;startFill=0;" parent="1" source="apUSs1hnYb1Tr-yOFyx6-4" edge="1">
          <mxGeometry relative="1" as="geometry">
            <mxPoint x="160" y="220" as="targetPoint" />
          </mxGeometry>
        </mxCell>
        <mxCell id="apUSs1hnYb1Tr-yOFyx6-17" style="edgeStyle=orthogonalEdgeStyle;rounded=0;orthogonalLoop=1;jettySize=auto;html=1;entryX=0.5;entryY=0;entryDx=0;entryDy=0;endArrow=none;startFill=0;" parent="1" source="apUSs1hnYb1Tr-yOFyx6-4" target="apUSs1hnYb1Tr-yOFyx6-13" edge="1">
          <mxGeometry relative="1" as="geometry" />
        </mxCell>
        <mxCell id="apUSs1hnYb1Tr-yOFyx6-4" value="&lt;font style=&quot;font-size: 18px;&quot;&gt;Выделение в группу левой кисти, локтя, плеча&lt;/font&gt;" style="rounded=0;whiteSpace=wrap;html=1;absoluteArcSize=1;arcSize=14;strokeWidth=2;" parent="1" vertex="1">
          <mxGeometry x="60" y="250" width="200" height="80" as="geometry" />
        </mxCell>
        <mxCell id="apUSs1hnYb1Tr-yOFyx6-10" style="edgeStyle=orthogonalEdgeStyle;rounded=0;orthogonalLoop=1;jettySize=auto;html=1;endArrow=none;startFill=0;" parent="1" source="apUSs1hnYb1Tr-yOFyx6-5" edge="1">
          <mxGeometry relative="1" as="geometry">
            <mxPoint x="390" y="220" as="targetPoint" />
          </mxGeometry>
        </mxCell>
        <mxCell id="M7IVvJv1SrqimSqKYLZS-1" style="edgeStyle=orthogonalEdgeStyle;rounded=0;orthogonalLoop=1;jettySize=auto;html=1;endArrow=none;startFill=0;" edge="1" parent="1" source="apUSs1hnYb1Tr-yOFyx6-5">
          <mxGeometry relative="1" as="geometry">
            <mxPoint x="390" y="470" as="targetPoint" />
          </mxGeometry>
        </mxCell>
        <mxCell id="apUSs1hnYb1Tr-yOFyx6-5" value="&lt;font style=&quot;font-size: 18px;&quot;&gt;Выделение в группу правой кисти, локтя, плеча&lt;/font&gt;" style="rounded=0;whiteSpace=wrap;html=1;absoluteArcSize=1;arcSize=14;strokeWidth=2;" parent="1" vertex="1">
          <mxGeometry x="290" y="360" width="200" height="80" as="geometry" />
        </mxCell>
        <mxCell id="apUSs1hnYb1Tr-yOFyx6-11" style="edgeStyle=orthogonalEdgeStyle;rounded=0;orthogonalLoop=1;jettySize=auto;html=1;endArrow=none;startFill=0;" parent="1" source="apUSs1hnYb1Tr-yOFyx6-6" edge="1">
          <mxGeometry relative="1" as="geometry">
            <mxPoint x="630.0000000000001" y="220" as="targetPoint" />
          </mxGeometry>
        </mxCell>
        <mxCell id="M7IVvJv1SrqimSqKYLZS-6" style="edgeStyle=orthogonalEdgeStyle;rounded=0;orthogonalLoop=1;jettySize=auto;html=1;endArrow=none;startFill=0;" edge="1" parent="1" source="apUSs1hnYb1Tr-yOFyx6-6">
          <mxGeometry relative="1" as="geometry">
            <mxPoint x="630" y="620" as="targetPoint" />
          </mxGeometry>
        </mxCell>
        <mxCell id="apUSs1hnYb1Tr-yOFyx6-6" value="&lt;font style=&quot;font-size: 18px;&quot;&gt;Выделение в группу левой голени, колена, тазобедренного&lt;/font&gt;" style="rounded=0;whiteSpace=wrap;html=1;absoluteArcSize=1;arcSize=14;strokeWidth=2;" parent="1" vertex="1">
          <mxGeometry x="530" y="520" width="200" height="80" as="geometry" />
        </mxCell>
        <mxCell id="apUSs1hnYb1Tr-yOFyx6-12" style="edgeStyle=orthogonalEdgeStyle;rounded=0;orthogonalLoop=1;jettySize=auto;html=1;endArrow=none;startFill=0;" parent="1" source="apUSs1hnYb1Tr-yOFyx6-7" edge="1">
          <mxGeometry relative="1" as="geometry">
            <mxPoint x="860" y="220" as="targetPoint" />
          </mxGeometry>
        </mxCell>
        <mxCell id="M7IVvJv1SrqimSqKYLZS-13" style="edgeStyle=orthogonalEdgeStyle;rounded=0;orthogonalLoop=1;jettySize=auto;html=1;endArrow=none;startFill=0;" edge="1" parent="1" source="apUSs1hnYb1Tr-yOFyx6-7">
          <mxGeometry relative="1" as="geometry">
            <mxPoint x="860" y="770" as="targetPoint" />
          </mxGeometry>
        </mxCell>
        <mxCell id="apUSs1hnYb1Tr-yOFyx6-7" value="&lt;font style=&quot;font-size: 18px;&quot;&gt;Выделение в группу правой голени, колена, тазобедренного&lt;/font&gt;" style="rounded=0;whiteSpace=wrap;html=1;absoluteArcSize=1;arcSize=14;strokeWidth=2;" parent="1" vertex="1">
          <mxGeometry x="760" y="670" width="200" height="80" as="geometry" />
        </mxCell>
        <mxCell id="apUSs1hnYb1Tr-yOFyx6-25" style="edgeStyle=orthogonalEdgeStyle;rounded=0;orthogonalLoop=1;jettySize=auto;html=1;endArrow=none;startFill=0;" parent="1" source="apUSs1hnYb1Tr-yOFyx6-13" edge="1">
          <mxGeometry relative="1" as="geometry">
            <mxPoint x="160" y="470" as="targetPoint" />
          </mxGeometry>
        </mxCell>
        <mxCell id="apUSs1hnYb1Tr-yOFyx6-13" value="&lt;font style=&quot;font-size: 18px;&quot;&gt;Присоединение группы таз, шея, левое плечо&lt;/font&gt;" style="rounded=0;whiteSpace=wrap;html=1;absoluteArcSize=1;arcSize=14;strokeWidth=2;" parent="1" vertex="1">
          <mxGeometry x="60" y="360" width="200" height="80" as="geometry" />
        </mxCell>
        <mxCell id="M7IVvJv1SrqimSqKYLZS-2" style="edgeStyle=orthogonalEdgeStyle;rounded=0;orthogonalLoop=1;jettySize=auto;html=1;endArrow=none;startFill=0;" edge="1" parent="1" source="apUSs1hnYb1Tr-yOFyx6-14">
          <mxGeometry relative="1" as="geometry">
            <mxPoint x="280" y="490" as="targetPoint" />
          </mxGeometry>
        </mxCell>
        <mxCell id="M7IVvJv1SrqimSqKYLZS-5" style="edgeStyle=orthogonalEdgeStyle;rounded=0;orthogonalLoop=1;jettySize=auto;html=1;endArrow=none;startFill=0;" edge="1" parent="1" source="apUSs1hnYb1Tr-yOFyx6-14">
          <mxGeometry relative="1" as="geometry">
            <mxPoint x="280" y="620" as="targetPoint" />
          </mxGeometry>
        </mxCell>
        <mxCell id="apUSs1hnYb1Tr-yOFyx6-14" value="&lt;font style=&quot;font-size: 18px;&quot;&gt;Присоединение группы таз, шея, правое плечо&lt;/font&gt;" style="rounded=0;whiteSpace=wrap;html=1;absoluteArcSize=1;arcSize=14;strokeWidth=2;" parent="1" vertex="1">
          <mxGeometry x="180" y="520" width="200" height="80" as="geometry" />
        </mxCell>
        <mxCell id="M7IVvJv1SrqimSqKYLZS-7" style="edgeStyle=orthogonalEdgeStyle;rounded=0;orthogonalLoop=1;jettySize=auto;html=1;endArrow=none;startFill=0;" edge="1" parent="1" source="apUSs1hnYb1Tr-yOFyx6-15">
          <mxGeometry relative="1" as="geometry">
            <mxPoint x="460" y="640" as="targetPoint" />
          </mxGeometry>
        </mxCell>
        <mxCell id="M7IVvJv1SrqimSqKYLZS-12" style="edgeStyle=orthogonalEdgeStyle;rounded=0;orthogonalLoop=1;jettySize=auto;html=1;endArrow=none;startFill=0;" edge="1" parent="1" source="apUSs1hnYb1Tr-yOFyx6-15">
          <mxGeometry relative="1" as="geometry">
            <mxPoint x="460" y="770" as="targetPoint" />
          </mxGeometry>
        </mxCell>
        <mxCell id="apUSs1hnYb1Tr-yOFyx6-15" value="&lt;font style=&quot;font-size: 18px;&quot;&gt;Присоединение группы спина, таз, левый тазобедренный&lt;/font&gt;" style="rounded=0;whiteSpace=wrap;html=1;absoluteArcSize=1;arcSize=14;strokeWidth=2;" parent="1" vertex="1">
          <mxGeometry x="360" y="670" width="200" height="80" as="geometry" />
        </mxCell>
        <mxCell id="M7IVvJv1SrqimSqKYLZS-14" style="edgeStyle=orthogonalEdgeStyle;rounded=0;orthogonalLoop=1;jettySize=auto;html=1;endArrow=none;startFill=0;" edge="1" parent="1" source="apUSs1hnYb1Tr-yOFyx6-16">
          <mxGeometry relative="1" as="geometry">
            <mxPoint x="660" y="790" as="targetPoint" />
          </mxGeometry>
        </mxCell>
        <mxCell id="M7IVvJv1SrqimSqKYLZS-15" style="edgeStyle=orthogonalEdgeStyle;rounded=0;orthogonalLoop=1;jettySize=auto;html=1;entryX=0.5;entryY=0;entryDx=0;entryDy=0;endArrow=none;startFill=0;" edge="1" parent="1" source="apUSs1hnYb1Tr-yOFyx6-16" target="tjVxPv9A50ptuYDxmKrU-6">
          <mxGeometry relative="1" as="geometry">
            <Array as="points">
              <mxPoint x="1050" y="860" />
              <mxPoint x="1050" y="120" />
              <mxPoint x="1304" y="120" />
            </Array>
          </mxGeometry>
        </mxCell>
        <mxCell id="apUSs1hnYb1Tr-yOFyx6-16" value="&lt;font style=&quot;font-size: 18px;&quot;&gt;Присоединение группы спина, таз, правый тазобедренный&lt;/font&gt;" style="rounded=0;whiteSpace=wrap;html=1;absoluteArcSize=1;arcSize=14;strokeWidth=2;" parent="1" vertex="1">
          <mxGeometry x="560" y="820" width="200" height="80" as="geometry" />
        </mxCell>
        <mxCell id="apUSs1hnYb1Tr-yOFyx6-23" value="" style="endArrow=none;html=1;rounded=0;strokeWidth=2;" parent="1" edge="1">
          <mxGeometry width="50" height="50" relative="1" as="geometry">
            <mxPoint x="40" y="470" as="sourcePoint" />
            <mxPoint x="510" y="470" as="targetPoint" />
          </mxGeometry>
        </mxCell>
        <mxCell id="apUSs1hnYb1Tr-yOFyx6-24" value="" style="endArrow=none;html=1;rounded=0;strokeWidth=2;" parent="1" edge="1">
          <mxGeometry width="50" height="50" relative="1" as="geometry">
            <mxPoint x="40" y="490" as="sourcePoint" />
            <mxPoint x="510" y="490" as="targetPoint" />
          </mxGeometry>
        </mxCell>
        <mxCell id="M7IVvJv1SrqimSqKYLZS-3" value="" style="endArrow=none;html=1;rounded=0;strokeWidth=2;" edge="1" parent="1">
          <mxGeometry width="50" height="50" relative="1" as="geometry">
            <mxPoint x="160" y="620" as="sourcePoint" />
            <mxPoint x="750" y="620" as="targetPoint" />
          </mxGeometry>
        </mxCell>
        <mxCell id="M7IVvJv1SrqimSqKYLZS-4" value="" style="endArrow=none;html=1;rounded=0;strokeWidth=2;" edge="1" parent="1">
          <mxGeometry width="50" height="50" relative="1" as="geometry">
            <mxPoint x="160" y="640" as="sourcePoint" />
            <mxPoint x="750" y="640" as="targetPoint" />
          </mxGeometry>
        </mxCell>
        <mxCell id="M7IVvJv1SrqimSqKYLZS-10" value="" style="endArrow=none;html=1;rounded=0;strokeWidth=2;" edge="1" parent="1">
          <mxGeometry width="50" height="50" relative="1" as="geometry">
            <mxPoint x="340" y="770" as="sourcePoint" />
            <mxPoint x="980" y="770" as="targetPoint" />
          </mxGeometry>
        </mxCell>
        <mxCell id="M7IVvJv1SrqimSqKYLZS-11" value="" style="endArrow=none;html=1;rounded=0;strokeWidth=2;" edge="1" parent="1">
          <mxGeometry width="50" height="50" relative="1" as="geometry">
            <mxPoint x="340" y="790" as="sourcePoint" />
            <mxPoint x="980" y="790" as="targetPoint" />
          </mxGeometry>
        </mxCell>
      </root>
    </mxGraphModel>
  </diagram>
</mxfile>
